<svg xmlns="http://www.w3.org/2000/svg" width="2048" height="350" viewBox="0 0 2048 350"><rect width="100%" height="100%" fill="#DDDDDD"/><path fill="#999999" d="m439.215 161.995-14.16 7.25q-1.83.9-4.01 1.4 2.18.51 4.01 1.41l14.16 7.29q.9.43 1.29 1.09.39.67.39 1.45v6.86l-30.93-16.15v-3.9l30.93-16.1v6.86q0 .78-.39 1.42-.39.65-1.29 1.12m15.17-5.07h9.67v40.01h-9.67zm11-11.66q0 1.24-.51 2.33-.51 1.1-1.34 1.92-.84.82-1.97 1.3-1.13.49-2.42.49-1.25 0-2.36-.49-1.11-.48-1.93-1.3t-1.31-1.92q-.49-1.09-.49-2.33 0-1.29.49-2.42t1.31-1.95 1.93-1.31 2.36-.49q1.29 0 2.42.49t1.97 1.31q.83.82 1.34 1.95t.51 2.42m20.94 51.67h-9.63v-32.76l-3.47-.55q-1.13-.23-1.82-.8-.68-.56-.68-1.61v-3.94h5.97v-2.97q0-3.43 1.03-6.16 1.04-2.73 2.97-4.64t4.7-2.92q2.76-1.02 6.24-1.02 2.76 0 5.14.74l-.19 4.84q-.04.54-.31.88-.28.33-.73.5-.44.18-1.03.24-.58.05-1.25.05-1.71 0-3.06.38-1.34.37-2.28 1.28-.94.92-1.42 2.42-.49 1.5-.49 3.73v2.65h10.41v6.86h-10.1zm24.03-37.6.58 4.53q1.87-3.59 4.45-5.64 2.57-2.05 6.08-2.05 2.77 0 4.45 1.21l-.63 7.22q-.19.7-.56.99-.37.3-1 .3-.58 0-1.73-.2-1.15-.19-2.25-.19-1.59 0-2.84.46-1.25.47-2.25 1.35-.99.88-1.75 2.12-.76 1.25-1.42 2.85v24.65h-9.64v-40.01h5.66q1.48 0 2.07.52.58.53.78 1.89m41.73 27.26v-6.74q-4.18.19-7.02.72-2.85.53-4.57 1.34-1.71.82-2.45 1.92-.75 1.09-.75 2.38 0 2.53 1.51 3.62 1.5 1.09 3.92 1.09 2.96 0 5.12-1.07 2.17-1.07 4.24-3.26m-20.36-21.02-1.72-3.08q6.9-6.32 16.62-6.32 3.51 0 6.27 1.16 2.77 1.15 4.68 3.19 1.92 2.05 2.91 4.9t.99 6.24v25.27h-4.36q-1.37 0-2.11-.41t-1.17-1.66l-.86-2.88q-1.52 1.36-2.96 2.4-1.44 1.03-3 1.73t-3.34 1.07q-1.77.37-3.92.37-2.53 0-4.68-.68-2.14-.68-3.7-2.05-1.56-1.36-2.42-3.39t-.86-4.72q0-1.52.51-3.02.5-1.5 1.65-2.87 1.16-1.36 2.99-2.57t4.5-2.11q2.67-.89 6.22-1.46t8.12-.68v-2.34q0-4.02-1.72-5.95t-4.95-1.93q-2.34 0-3.88.55-1.54.54-2.71 1.22-1.17.69-2.13 1.23-.96.55-2.13.55-1.01 0-1.71-.53-.7-.52-1.13-1.23m48.44 31.36h-9.64v-40.01h5.89q1.87 0 2.46 1.75l.62 2.96q1.06-1.17 2.21-2.14t2.45-1.68q1.31-.7 2.81-1.11t3.3-.41q3.78 0 6.22 2.05 2.43 2.05 3.64 5.44.94-1.99 2.34-3.41 1.41-1.43 3.08-2.32 1.68-.9 3.57-1.33t3.81-.43q3.31 0 5.88 1.02 2.58 1.01 4.33 2.96 1.76 1.95 2.67 4.76.92 2.81.92 6.43v25.47h-9.63v-25.47q0-3.82-1.68-5.75t-4.91-1.93q-1.48 0-2.75.51-1.27.5-2.23 1.46-.95.95-1.5 2.4-.54 1.44-.54 3.31v25.47h-9.67v-25.47q0-4.01-1.62-5.85-1.62-1.83-4.74-1.83-2.11 0-3.92 1.03-1.81 1.04-3.37 2.83zm63.29-24.61h18.18q0-1.87-.53-3.53t-1.58-2.9q-1.05-1.25-2.67-1.97t-3.76-.72q-4.18 0-6.58 2.37-2.39 2.38-3.06 6.75m24.57 5.81h-24.76q.23 3.08 1.09 5.33.86 2.24 2.26 3.7 1.41 1.46 3.34 2.18 1.93.73 4.27.73t4.03-.55q1.7-.55 2.97-1.21 1.26-.66 2.22-1.21.96-.54 1.85-.54 1.21 0 1.8.89l2.77 3.51q-1.6 1.88-3.59 3.14-1.99 1.27-4.16 2.03-2.16.76-4.4 1.07-2.25.31-4.35.31-4.17 0-7.76-1.38t-6.24-4.09q-2.65-2.72-4.18-6.71-1.52-4-1.52-9.26 0-4.1 1.33-7.71 1.33-3.6 3.8-6.28 2.48-2.67 6.05-4.23t8.05-1.56q3.78 0 6.98 1.21t5.5 3.53 3.61 5.69q1.3 3.38 1.3 7.71 0 2.18-.46 2.94-.47.76-1.8.76m13.15-25.54 30.92 16.1v3.9l-30.92 16.15v-6.86q0-.78.39-1.45.39-.66 1.28-1.09l14.16-7.29q1.83-.9 4.02-1.41-2.19-.5-4.02-1.4l-14.16-7.25q-.89-.47-1.28-1.12-.39-.64-.39-1.42zm89.81 16.07h18.72v22.81q-4.29 3.16-9.14 4.62-4.86 1.46-10.4 1.46-6.9 0-12.5-2.14-5.59-2.15-9.55-5.97t-6.1-9.12q-2.15-5.31-2.15-11.59 0-6.35 2.07-11.66 2.06-5.3 5.87-9.12 3.8-3.83 9.22-5.93 5.42-2.11 12.17-2.11 3.43 0 6.41.55 2.99.54 5.54 1.5 2.56.95 4.66 2.32 2.11 1.37 3.86 3l-3 4.76q-.7 1.13-1.83 1.39-1.13.25-2.46-.57-1.29-.74-2.57-1.48-1.29-.74-2.87-1.29-1.58-.54-3.55-.9-1.97-.35-4.54-.35-4.18 0-7.55 1.41-3.37 1.4-5.75 4.01-2.38 2.62-3.67 6.28-1.28 3.67-1.28 8.19 0 4.84 1.38 8.64t3.9 6.44q2.52 2.63 6.06 4.01 3.55 1.39 7.92 1.39 3.12 0 5.58-.66 2.46-.67 4.8-1.8v-10.22h-7.1q-1.02 0-1.58-.56-.57-.57-.57-1.39zm45.05-12.37q4.44 0 8.09 1.44 3.65 1.45 6.24 4.1t4 6.47q1.4 3.83 1.4 8.54 0 4.76-1.4 8.58-1.41 3.83-4 6.52t-6.24 4.13-8.09 1.44q-4.49 0-8.15-1.44-3.67-1.44-6.26-4.13-2.6-2.69-4.02-6.52-1.42-3.82-1.42-8.58 0-4.71 1.42-8.54 1.42-3.82 4.02-6.47 2.59-2.65 6.26-4.1 3.66-1.44 8.15-1.44m0 33.81q4.99 0 7.39-3.35t2.4-9.83q0-6.47-2.4-9.86-2.4-3.4-7.39-3.4-5.07 0-7.51 3.42-2.44 3.41-2.44 9.84 0 6.44 2.44 9.81t7.51 3.37m44.81-33.81q4.44 0 8.09 1.44 3.65 1.45 6.24 4.1t4 6.47q1.4 3.83 1.4 8.54 0 4.76-1.4 8.58-1.41 3.83-4 6.52t-6.24 4.13-8.09 1.44q-4.49 0-8.15-1.44-3.67-1.44-6.26-4.13-2.6-2.69-4.02-6.52-1.42-3.82-1.42-8.58 0-4.71 1.42-8.54 1.42-3.82 4.02-6.47 2.59-2.65 6.26-4.1 3.66-1.44 8.15-1.44m0 33.81q4.99 0 7.39-3.35t2.4-9.83q0-6.47-2.4-9.86-2.4-3.4-7.39-3.4-5.07 0-7.51 3.42-2.44 3.41-2.44 9.84 0 6.44 2.44 9.81t7.51 3.37m41.73-14.15q1.79 0 3.12-.49 1.32-.49 2.2-1.35.88-.85 1.33-2.06t.45-2.65q0-2.97-1.78-4.7-1.77-1.74-5.32-1.74t-5.33 1.74q-1.77 1.73-1.77 4.7 0 1.4.45 2.61t1.32 2.09q.88.87 2.23 1.36 1.34.49 3.1.49m10.88 22.77q0-1.17-.7-1.91t-1.91-1.15-2.83-.6q-1.62-.2-3.43-.29-1.82-.1-3.75-.18t-3.76-.31q-1.6.9-2.59 2.1-1 1.21-1 2.81 0 1.05.53 1.97.52.92 1.67 1.58 1.16.66 2.99 1.03t4.48.37q2.69 0 4.64-.4 1.95-.41 3.22-1.14 1.27-.72 1.85-1.71.59-1 .59-2.17m-1.91-40.44h11.5v3.59q0 1.72-2.06 2.11l-3.59.66q.82 2.06.82 4.52 0 2.97-1.19 5.36-1.19 2.4-3.3 4.08-2.1 1.68-4.97 2.59-2.87.92-6.18.92-1.17 0-2.26-.12-1.1-.11-2.15-.31-1.87 1.13-1.87 2.54 0 1.2 1.11 1.77t2.95.8q1.83.23 4.17.29t4.8.26q2.45.19 4.79.68t4.18 1.54q1.83 1.05 2.94 2.87 1.11 1.81 1.11 4.66 0 2.65-1.31 5.14-1.3 2.5-3.78 4.45-2.47 1.95-6.08 3.14t-8.21 1.19q-4.53 0-7.88-.88t-5.58-2.34q-2.22-1.46-3.31-3.37t-1.09-3.98q0-2.81 1.69-4.7 1.7-1.89 4.66-3.02-1.6-.82-2.53-2.19-.94-1.36-.94-3.58 0-.9.33-1.86.34-.95.98-1.89.64-.93 1.62-1.77.97-.84 2.3-1.5-3.04-1.64-4.78-4.37-1.73-2.73-1.73-6.4 0-2.96 1.18-5.36 1.19-2.4 3.32-4.1 2.13-1.69 5.03-2.59 2.91-.9 6.34-.9 2.57 0 4.83.53 2.27.53 4.14 1.54m17.7-19.3h9.64v57.95h-9.64zm26.88 33.34h18.17q0-1.87-.53-3.53-.52-1.66-1.58-2.9-1.05-1.25-2.67-1.97t-3.76-.72q-4.17 0-6.57 2.37-2.4 2.38-3.06 6.75m24.57 5.81h-24.77q.23 3.08 1.09 5.33.86 2.24 2.26 3.7 1.41 1.46 3.34 2.18 1.93.73 4.27.73t4.04-.55q1.69-.55 2.96-1.21t2.22-1.21q.96-.54 1.86-.54 1.2 0 1.79.89l2.77 3.51q-1.6 1.88-3.59 3.14-1.99 1.27-4.15 2.03-2.17.76-4.41 1.07t-4.35.31q-4.17 0-7.76-1.38t-6.24-4.09q-2.65-2.72-4.17-6.71-1.52-4-1.52-9.26 0-4.1 1.32-7.71 1.33-3.6 3.8-6.28 2.48-2.67 6.05-4.23t8.05-1.56q3.79 0 6.98 1.21 3.2 1.21 5.5 3.53t3.61 5.69q1.31 3.38 1.31 7.71 0 2.18-.47 2.94t-1.79.76m83.18-37.59h7.92v56.39h-9.24v-36.43q0-2.18.23-4.72l-17.04 32.02q-1.21 2.3-3.71 2.3h-1.48q-2.5 0-3.7-2.3l-17.24-32.13q.11 1.28.19 2.53t.08 2.3v36.43h-9.24v-56.39h7.91q.71 0 1.21.04.51.03.92.19t.74.51.64.93l16.89 31.32q.66 1.25 1.23 2.57.57 1.33 1.11 2.73.55-1.44 1.13-2.78.59-1.35 1.25-2.6l16.65-31.24q.32-.58.67-.93t.76-.51.91-.19q.51-.04 1.21-.04m40.09 46.05v-6.74q-4.17.19-7.02.72-2.84.53-4.56 1.34-1.71.82-2.46 1.92-.74 1.09-.74 2.38 0 2.53 1.5 3.62 1.51 1.09 3.92 1.09 2.97 0 5.13-1.07 2.17-1.07 4.23-3.26m-20.35-21.02-1.72-3.08q6.9-6.32 16.61-6.32 3.51 0 6.28 1.16 2.77 1.15 4.68 3.19 1.91 2.05 2.91 4.9.99 2.85.99 6.24v25.27h-4.36q-1.37 0-2.11-.41t-1.17-1.66l-.86-2.88q-1.52 1.36-2.96 2.4-1.45 1.03-3.01 1.73t-3.33 1.07-3.92.37q-2.53 0-4.68-.68-2.14-.68-3.7-2.05-1.56-1.36-2.42-3.39t-.86-4.72q0-1.52.51-3.02.5-1.5 1.65-2.87 1.15-1.36 2.99-2.57 1.83-1.21 4.5-2.11 2.67-.89 6.22-1.46t8.11-.68v-2.34q0-4.02-1.71-5.95-1.72-1.93-4.95-1.93-2.34 0-3.89.55-1.54.54-2.71 1.22-1.17.69-2.12 1.23-.96.55-2.13.55-1.01 0-1.71-.53-.7-.52-1.13-1.23m48.43 3.05v17.94q1.64 1.99 3.57 2.8 1.93.82 4.2.82 2.18 0 3.93-.82 1.76-.81 2.99-2.49t1.89-4.23q.66-2.56.66-6.03 0-3.51-.56-5.95-.57-2.43-1.62-3.96-1.05-1.52-2.56-2.22-1.5-.7-3.41-.7-3 0-5.11 1.27-2.1 1.27-3.98 3.57m-1.28-9.95.78 3.71q2.45-2.77 5.57-4.49t7.34-1.72q3.27 0 5.98 1.37t4.68 3.96 3.04 6.39q1.08 3.81 1.08 8.72 0 4.49-1.21 8.31t-3.45 6.63q-2.25 2.81-5.42 4.39-3.18 1.57-7.12 1.57-3.36 0-5.73-1.03-2.38-1.03-4.26-2.86v16.37h-9.63v-53.07h5.89q1.87 0 2.46 1.75m62.55 2.57-2.18 3.48q-.39.62-.82.87-.43.26-1.09.26-.7 0-1.5-.39t-1.86-.88q-1.05-.49-2.39-.88-1.35-.39-3.18-.39-2.85 0-4.47 1.21t-1.62 3.16q0 1.29.84 2.16.84.88 2.22 1.54 1.39.67 3.14 1.19 1.76.53 3.57 1.16 1.82.62 3.57 1.42 1.76.8 3.14 2.03 1.39 1.23 2.22 2.94.84 1.72.84 4.13 0 2.89-1.03 5.33t-3.06 4.21q-2.03 1.78-5.01 2.77-2.99.99-6.89.99-2.06 0-4.03-.37t-3.79-1.03q-1.81-.66-3.35-1.56t-2.71-1.95l2.22-3.67q.43-.66 1.02-1.01.58-.35 1.48-.35.89 0 1.69.51.8.5 1.86 1.09 1.05.58 2.47 1.09 1.43.51 3.61.51 1.72 0 2.94-.41 1.23-.41 2.03-1.08.8-.66 1.17-1.54.37-.87.37-1.81 0-1.4-.84-2.3-.83-.9-2.22-1.56-1.38-.66-3.16-1.19-1.77-.53-3.62-1.15-1.86-.62-3.63-1.46-1.78-.84-3.16-2.13t-2.22-3.16-.84-4.52q0-2.46.97-4.68.98-2.22 2.87-3.88t4.72-2.65q2.83-1 6.53-1 4.14 0 7.53 1.37 3.39 1.36 5.65 3.58m26.76-22.26h9.63v57.95h-9.63zm36.97 17.31q4.45 0 8.09 1.44 3.65 1.45 6.24 4.1 2.6 2.65 4 6.47 1.4 3.83 1.4 8.54 0 4.76-1.4 8.58-1.4 3.83-4 6.52-2.59 2.69-6.24 4.13-3.64 1.44-8.09 1.44-4.49 0-8.15-1.44-3.67-1.44-6.26-4.13t-4.02-6.52q-1.42-3.82-1.42-8.58 0-4.71 1.42-8.54 1.43-3.82 4.02-6.47t6.26-4.1q3.66-1.44 8.15-1.44m0 33.81q4.99 0 7.39-3.35t2.4-9.83q0-6.47-2.4-9.86-2.4-3.4-7.39-3.4-5.07 0-7.51 3.42-2.44 3.41-2.44 9.84 0 6.44 2.44 9.81t7.51 3.37m58.3-28.23-2.53 3.51q-.43.55-.84.86t-1.19.31q-.74 0-1.44-.45t-1.68-1.01q-.97-.57-2.32-1.02-1.34-.45-3.33-.45-2.54 0-4.45.92t-3.18 2.63q-1.27 1.72-1.89 4.16-.62 2.43-.62 5.51 0 3.2.68 5.7t1.97 4.19q1.29 1.7 3.12 2.58 1.83.87 4.13.87t3.73-.56q1.42-.57 2.4-1.25.97-.68 1.69-1.25.72-.56 1.62-.56 1.17 0 1.76.89l2.76 3.51q-1.59 1.88-3.47 3.14-1.87 1.27-3.88 2.03t-4.13 1.07q-2.13.31-4.23.31-3.71 0-6.98-1.38-3.28-1.38-5.74-4.04-2.45-2.65-3.88-6.49-1.42-3.84-1.42-8.76 0-4.4 1.27-8.17 1.26-3.76 3.72-6.51t6.09-4.31q3.62-1.56 8.34-1.56 4.49 0 7.86 1.44 3.37 1.45 6.06 4.14m27.54 24.72v-6.74q-4.17.19-7.02.72t-4.56 1.34q-1.72.82-2.46 1.92-.74 1.09-.74 2.38 0 2.53 1.5 3.62t3.92 1.09q2.96 0 5.13-1.07 2.16-1.07 4.23-3.26m-20.36-21.02-1.72-3.08q6.91-6.32 16.62-6.32 3.51 0 6.28 1.16 2.77 1.15 4.68 3.19 1.91 2.05 2.9 4.9 1 2.85 1 6.24v25.27h-4.37q-1.37 0-2.11-.41t-1.17-1.66l-.85-2.88q-1.53 1.36-2.97 2.4-1.44 1.03-3 1.73t-3.34 1.07q-1.77.37-3.92.37-2.53 0-4.68-.68-2.14-.68-3.7-2.05-1.56-1.36-2.42-3.39t-.86-4.72q0-1.52.51-3.02t1.66-2.87q1.15-1.36 2.98-2.57t4.51-2.11q2.67-.89 6.22-1.46t8.11-.68v-2.34q0-4.02-1.72-5.95-1.71-1.93-4.95-1.93-2.34 0-3.88.55-1.54.54-2.71 1.22-1.17.69-2.13 1.23-.95.55-2.12.55-1.02 0-1.72-.53-.7-.52-1.13-1.23m52.14 31.98q-5.22 0-8.01-2.94t-2.79-8.13v-22.35h-4.09q-.78 0-1.33-.51-.55-.5-.55-1.52v-3.82l6.44-1.05 2.03-10.92q.19-.78.74-1.21.54-.43 1.4-.43h4.99v12.6h10.69v6.86h-10.69v21.68q0 1.88.92 2.93t2.52 1.05q.89 0 1.5-.21.6-.22 1.05-.45t.8-.45q.35-.21.7-.21.43 0 .7.21.28.22.59.64l2.88 4.69q-2.1 1.75-4.83 2.65-2.73.89-5.66.89m15.99-40.63h9.68v40.01h-9.68zm11-11.66q0 1.24-.51 2.33-.5 1.1-1.34 1.92t-1.97 1.3q-1.13.49-2.42.49-1.25 0-2.36-.49-1.11-.48-1.93-1.3t-1.31-1.92q-.48-1.09-.48-2.33 0-1.29.48-2.42.49-1.13 1.31-1.95t1.93-1.31 2.36-.49q1.29 0 2.42.49t1.97 1.31 1.34 1.95q.51 1.13.51 2.42m26.21 11.03q4.45 0 8.09 1.44 3.65 1.45 6.24 4.1 2.6 2.65 4 6.47 1.4 3.83 1.4 8.54 0 4.76-1.4 8.58-1.4 3.83-4 6.52-2.59 2.69-6.24 4.13-3.64 1.44-8.09 1.44-4.49 0-8.15-1.44-3.67-1.44-6.26-4.13t-4.02-6.52q-1.42-3.82-1.42-8.58 0-4.71 1.42-8.54 1.43-3.82 4.02-6.47t6.26-4.1q3.66-1.44 8.15-1.44m0 33.81q4.99 0 7.39-3.35t2.4-9.83q0-6.47-2.4-9.86-2.4-3.4-7.39-3.4-5.07 0-7.51 3.42-2.44 3.41-2.44 9.84 0 6.44 2.44 9.81t7.51 3.37m35.45-31.43.66 3.16q1.21-1.21 2.56-2.24 1.34-1.04 2.84-1.76 1.51-.72 3.22-1.13 1.72-.41 3.75-.41 3.27 0 5.81 1.11 2.53 1.12 4.23 3.12 1.7 2.01 2.57 4.8.88 2.79.88 6.14v25.47h-9.63v-25.47q0-3.66-1.68-5.67t-5.11-2.01q-2.49 0-4.68 1.13-2.18 1.13-4.13 3.08v28.94h-9.64v-40.01h5.89q1.88 0 2.46 1.75m54.72-19.69h9.63v57.95h-9.63zm19.58 17.94h9.67v40.01h-9.67zm10.99-11.66q0 1.24-.5 2.33-.51 1.1-1.35 1.92t-1.97 1.3q-1.13.49-2.42.49-1.24 0-2.36-.49-1.11-.48-1.93-1.3t-1.3-1.92q-.49-1.09-.49-2.33 0-1.29.49-2.42.48-1.13 1.3-1.95t1.93-1.31q1.12-.49 2.36-.49 1.29 0 2.42.49t1.97 1.31 1.35 1.95q.5 1.13.5 2.42m16.85 13.41.66 3.16q1.21-1.21 2.56-2.24 1.34-1.04 2.85-1.76 1.5-.72 3.21-1.13 1.72-.41 3.75-.41 3.27 0 5.81 1.11 2.53 1.12 4.23 3.12 1.7 2.01 2.57 4.8.88 2.79.88 6.14v25.47h-9.63v-25.47q0-3.66-1.68-5.67t-5.11-2.01q-2.49 0-4.68 1.13-2.18 1.13-4.13 3.08v28.94h-9.63v-40.01h5.88q1.88 0 2.46 1.75m35.65-19.69h9.63v33.18h1.79q.98 0 1.54-.25.57-.25 1.15-1.03l9.95-12.29q.62-.82 1.38-1.25.76-.42 1.97-.42h8.82l-12.44 14.85q-1.33 1.76-2.89 2.7.82.58 1.46 1.36.65.78 1.23 1.68l13.34 19.42h-8.7q-1.13 0-1.95-.37t-1.36-1.35l-10.22-15.17q-.55-.89-1.13-1.17-.59-.27-1.76-.27h-2.18v18.33h-9.63z"/></svg>