<svg xmlns="http://www.w3.org/2000/svg" width="160" height="160" viewBox="0 0 160 160"><rect width="100%" height="100%" fill="#DDDDDD"/><path fill="#999999" d="M40.105 87.055h12.71v4.88h-18.63v-31.81h5.92zm26.07-18.04q2.51 0 4.56.81 2.06.81 3.52 2.31 1.47 1.5 2.26 3.65.79 2.16.79 4.82 0 2.68-.79 4.84t-2.26 3.67q-1.46 1.52-3.52 2.34-2.05.81-4.56.81-2.53 0-4.6-.81-2.07-.82-3.53-2.34-1.46-1.51-2.27-3.67-.8-2.16-.8-4.84 0-2.66.8-4.82.81-2.15 2.27-3.65t3.53-2.31 4.6-.81m0 19.07q2.81 0 4.17-1.89 1.35-1.89 1.35-5.55 0-3.65-1.35-5.56-1.36-1.92-4.17-1.92-2.86 0-4.24 1.93-1.37 1.92-1.37 5.55t1.37 5.54q1.38 1.9 4.24 1.9m23.54-7.99q1.01 0 1.76-.27.75-.28 1.24-.76.5-.48.75-1.17.25-.68.25-1.49 0-1.67-1-2.65t-3-.98-3.01.98q-1 .98-1 2.65 0 .79.26 1.47.25.68.74 1.18.5.49 1.26.77.76.27 1.75.27m6.14 12.85q0-.66-.4-1.08-.4-.41-1.08-.64-.68-.24-1.59-.35-.92-.11-1.94-.16-1.02-.06-2.11-.1t-2.12-.18q-.91.51-1.47 1.19t-.56 1.59q0 .59.3 1.11.3.51.94.89.65.37 1.69.58 1.03.21 2.53.21 1.52 0 2.62-.23t1.81-.64q.72-.41 1.04-.97.34-.56.34-1.22m-1.08-22.81h6.49v2.02q0 .97-1.17 1.19l-2.02.37q.46 1.17.46 2.56 0 1.67-.67 3.02t-1.86 2.3-2.81 1.46q-1.61.52-3.48.52-.66 0-1.28-.07-.61-.06-1.21-.17-1.05.64-1.05 1.43 0 .68.62 1 .63.32 1.66.45 1.04.13 2.36.17 1.32.03 2.7.14 1.39.11 2.71.38 1.32.28 2.35.87 1.04.6 1.66 1.62.63 1.02.63 2.63 0 1.49-.74 2.9-.73 1.41-2.13 2.51t-3.43 1.77q-2.04.67-4.63.67-2.55 0-4.45-.49-1.89-.5-3.14-1.32-1.26-.83-1.87-1.91-.62-1.07-.62-2.24 0-1.58.96-2.65t2.63-1.71q-.9-.46-1.43-1.23t-.53-2.02q0-.51.19-1.05.18-.54.55-1.06.36-.53.91-1 .55-.48 1.3-.85-1.72-.93-2.7-2.47t-.98-3.6q0-1.68.67-3.03.68-1.35 1.87-2.31 1.2-.96 2.84-1.46 1.64-.51 3.58-.51 1.45 0 2.73.3 1.27.3 2.33.87m19.91-1.12q2.51 0 4.56.81 2.06.81 3.52 2.31 1.47 1.5 2.26 3.65.79 2.16.79 4.82 0 2.68-.79 4.84t-2.26 3.67q-1.46 1.52-3.52 2.34-2.05.81-4.56.81-2.53 0-4.6-.81-2.07-.82-3.53-2.34-1.46-1.51-2.27-3.67-.8-2.16-.8-4.84 0-2.66.8-4.82.81-2.15 2.27-3.65t3.53-2.31 4.6-.81m0 19.07q2.81 0 4.17-1.89 1.35-1.89 1.35-5.55 0-3.65-1.35-5.56-1.36-1.92-4.17-1.92-2.86 0-4.24 1.93-1.37 1.92-1.37 5.55t1.37 5.54q1.38 1.9 4.24 1.9"/></svg>